<mxfile host="app.diagrams.net" modified="2023-04-10T15:33:23.234Z" agent="Mozilla/5.0 (Macintosh; Intel Mac OS X 10_15_7) AppleWebKit/537.36 (KHTML, like Gecko) Chrome/112.0.0.0 Safari/537.36" etag="WU_Hm224nMPG-Sf6dhaJ" version="21.1.5" type="device">
  <diagram name="Page-1" id="nNrRzMJntUDOqbRkXg9S">
    <mxGraphModel dx="591" dy="479" grid="1" gridSize="10" guides="1" tooltips="1" connect="1" arrows="1" fold="1" page="1" pageScale="1" pageWidth="850" pageHeight="1100" math="0" shadow="0">
      <root>
        <mxCell id="0" />
        <mxCell id="1" parent="0" />
        <mxCell id="vlbRMJQWBu6Qyt2dsa4R-8" value="" style="shape=trapezoid;perimeter=trapezoidPerimeter;whiteSpace=wrap;html=1;fixedSize=1;rotation=90;size=35;" vertex="1" parent="1">
          <mxGeometry x="200" y="355" width="120" height="90" as="geometry" />
        </mxCell>
        <mxCell id="vlbRMJQWBu6Qyt2dsa4R-10" value="" style="shape=trapezoid;perimeter=trapezoidPerimeter;whiteSpace=wrap;html=1;fixedSize=1;rotation=-90;size=35;" vertex="1" parent="1">
          <mxGeometry x="330" y="355" width="120" height="90" as="geometry" />
        </mxCell>
        <mxCell id="vlbRMJQWBu6Qyt2dsa4R-11" value="" style="rounded=0;whiteSpace=wrap;html=1;rotation=90;" vertex="1" parent="1">
          <mxGeometry x="300" y="390" width="50" height="20" as="geometry" />
        </mxCell>
        <mxCell id="vlbRMJQWBu6Qyt2dsa4R-12" value="" style="rounded=0;whiteSpace=wrap;html=1;rotation=90;" vertex="1" parent="1">
          <mxGeometry x="140" y="390" width="120" height="20" as="geometry" />
        </mxCell>
        <mxCell id="vlbRMJQWBu6Qyt2dsa4R-14" value="" style="rounded=0;whiteSpace=wrap;html=1;rotation=90;" vertex="1" parent="1">
          <mxGeometry x="390" y="390" width="120" height="20" as="geometry" />
        </mxCell>
      </root>
    </mxGraphModel>
  </diagram>
</mxfile>
